<?xml version="1.0" encoding="UTF-8"?>
<!-- Generator: visioncortex VTracer 0.6.4 -->
<svg version="1.1" xmlns="http://www.w3.org/2000/svg" width="1254" height="1254">
<path d="M0 0 C413.82 0 827.64 0 1254 0 C1254 413.82 1254 827.64 1254 1254 C840.18 1254 426.36 1254 0 1254 C0 840.18 0 426.36 0 0 Z " fill="#000000" transform="translate(0,0)"/>
<path d="M0 0 C5.1 0.01 10.2 0.01 15.3 0.01 C24.11 0 32.92 0.01 41.73 0.03 C54.47 0.06 67.21 0.06 79.95 0.07 C100.62 0.07 121.3 0.09 141.97 0.12 C162.04 0.15 182.11 0.17 202.18 0.18 C203.42 0.18 204.66 0.18 205.93 0.19 C212.15 0.19 218.37 0.19 224.59 0.2 C276.09 0.23 327.58 0.28 379.08 0.35 C378.76 1.95 378.45 3.55 378.13 5.15 C377.95 6.05 377.78 6.94 377.6 7.86 C369.4 46.97 346.08 85.42 318.49 113.88 C317.14 115.29 315.81 116.71 314.48 118.14 C293.01 140.61 264.89 155.39 235.08 163.35 C234.14 163.6 233.2 163.86 232.24 164.12 C205.97 171.01 179.31 170.19 152.35 170.11 C142.53 170.08 132.71 170.11 122.89 170.14 C119.51 170.14 116.14 170.14 112.77 170.12 C99.27 170.11 85.97 170.81 72.53 172.11 C69.2 172.43 65.86 172.71 62.52 172.99 C9.24 177.93 -42.1 198.82 -80.74 236.41 C-82.92 238.35 -82.92 238.35 -85.92 239.35 C-86.58 240.34 -87.24 241.33 -87.92 242.35 C-88.58 242.35 -89.24 242.35 -89.92 242.35 C-90.18 243.1 -90.44 243.85 -90.7 244.62 C-91.99 247.49 -93.19 248.87 -95.49 250.97 C-100.44 255.74 -104.66 260.96 -108.92 266.35 C-109.71 267.31 -110.49 268.28 -111.3 269.27 C-129.04 291.62 -142.71 317.37 -152.16 344.25 C-153.29 347.34 -154.61 350.33 -155.92 353.35 C-158.21 359.39 -159.76 365.55 -161.18 371.84 C-161.92 374.35 -161.92 374.35 -163.92 376.35 C-164.19 378.28 -164.45 380.21 -164.64 382.15 C-164.92 384.35 -164.92 384.35 -165.99 388.1 C-167.15 392.47 -167.01 396.66 -166.93 401.16 C-166.92 406.25 -167.42 411.29 -167.92 416.35 C-167.05 416.39 -166.18 416.42 -165.28 416.46 C-157.89 416.86 -150.66 417.58 -143.36 418.79 C-142.61 418.91 -141.86 419.03 -141.09 419.16 C-136.87 419.89 -132.98 420.96 -128.92 422.35 C-126.85 422.71 -126.85 422.71 -124.92 422.85 C-121.37 423.14 -118.3 424.19 -114.92 425.35 C-113.01 425.9 -111.09 426.44 -109.17 426.97 C-102.03 429.01 -94.91 431.13 -87.8 433.29 C-86.17 433.77 -86.17 433.77 -84.51 434.27 C-78.1 436.23 -71.93 438.49 -65.76 441.13 C-63.16 442.25 -60.55 443.3 -57.91 444.32 C-52.22 446.59 -46.67 449.15 -41.11 451.72 C-40.06 452.21 -39.01 452.69 -37.93 453.19 C-34.93 454.57 -31.93 455.96 -28.92 457.35 C-27.44 458.03 -25.96 458.72 -24.47 459.4 C-21.62 460.71 -18.77 462.03 -15.92 463.35 C-15.9 462.69 -15.87 462.04 -15.85 461.36 C-14.77 444.09 -6.46 430.08 6.08 418.35 C12.75 412.91 19.96 408.29 28.08 405.35 C28.85 405.06 29.62 404.78 30.42 404.48 C46.64 398.79 65.37 399.77 80.87 407.2 C98.69 416.47 113.29 430.72 119.45 450.22 C125.01 469.51 122.38 489.64 113.08 507.35 C105.55 519.56 95.85 528.86 83.08 535.35 C82.09 535.35 81.1 535.35 80.08 535.35 C80.43 535.75 80.79 536.16 81.15 536.57 C82.34 537.93 83.53 539.29 84.71 540.65 C86.43 542.62 88.17 544.57 89.91 546.52 C112.78 572.27 131.26 601.29 146.08 632.35 C146.8 633.85 146.8 633.85 147.53 635.39 C150.04 640.75 152.19 646.18 154.16 651.76 C155.01 654.16 155.91 656.54 156.83 658.91 C158.08 662.35 158.08 662.35 158.08 664.35 C133.66 664.35 109.24 664.35 84.08 664.35 C82.1 659.07 80.12 653.79 78.08 648.35 C65.21 617.28 47.3 587.38 24.27 562.72 C22.42 560.71 20.63 558.68 18.85 556.61 C14.96 552.15 10.83 547.96 6.64 543.79 C5.93 543.07 5.21 542.35 4.48 541.62 C-0.16 536.99 -4.93 532.59 -9.92 528.35 C-10.59 527.78 -11.25 527.22 -11.93 526.64 C-20.95 519.02 -30.05 511.83 -39.92 505.35 C-40.97 504.65 -42.02 503.95 -43.1 503.22 C-58.37 493.18 -74.36 484.09 -90.92 476.35 C-91.72 475.97 -92.52 475.59 -93.35 475.2 C-117.16 464.04 -142.1 456.21 -167.92 451.35 C-167.92 457.62 -167.92 463.89 -167.92 470.35 C-165.94 470.68 -163.96 471.01 -161.92 471.35 C-147.83 474.37 -134.34 479.14 -120.92 484.35 C-120.11 484.66 -119.29 484.97 -118.46 485.3 C-93.34 495.05 -69.44 509.16 -47.92 525.35 C-47.22 525.88 -46.51 526.41 -45.78 526.95 C-36.73 533.78 -28.02 540.8 -19.8 548.62 C-17.21 551.08 -14.56 553.44 -11.86 555.79 C-2.62 564.08 5.54 573.5 13.08 583.35 C13.5 583.89 13.93 584.44 14.37 585 C57.08 639.38 57.08 639.38 57.08 664.35 C28.7 664.35 0.32 664.35 -28.92 664.35 C-33.22 653.6 -33.22 653.6 -35 648.24 C-38.15 638.81 -42.21 630.09 -46.92 621.35 C-47.47 620.33 -47.47 620.33 -48.03 619.29 C-61.75 593.93 -79.59 568.96 -102.57 551.18 C-104.69 549.53 -106.64 547.8 -108.61 545.97 C-125.86 530.82 -147.04 520.39 -167.92 511.35 C-167.92 518.61 -167.92 525.87 -167.92 533.35 C-165.94 534.01 -163.96 534.67 -161.92 535.35 C-144.3 543.67 -128.86 556.92 -114.92 570.35 C-114.15 571.07 -113.38 571.79 -112.58 572.54 C-91.47 592.76 -75.83 620.42 -66.11 647.72 C-65.81 648.57 -65.51 649.41 -65.19 650.28 C-64.91 651.1 -64.63 651.91 -64.34 652.75 C-64.09 653.47 -63.84 654.18 -63.58 654.92 C-62.75 658 -62.38 661.19 -61.92 664.35 C-102.51 664.35 -143.1 664.35 -184.92 664.35 C-185.58 663.03 -186.24 661.71 -186.92 660.35 C-187.58 660.35 -188.24 660.35 -188.92 660.35 C-188.98 610.48 -189.02 560.62 -189.05 510.75 C-189.05 509.65 -189.05 509.65 -189.05 508.51 C-189.06 492.46 -189.07 476.4 -189.08 460.34 C-189.08 452.47 -189.08 444.59 -189.09 436.72 C-189.09 435.93 -189.09 435.15 -189.09 434.34 C-189.1 408.97 -189.13 383.6 -189.15 358.22 C-189.18 332.14 -189.2 306.05 -189.21 279.96 C-189.21 276.27 -189.21 272.58 -189.21 268.89 C-189.21 268.17 -189.21 267.44 -189.21 266.69 C-189.21 255.03 -189.23 243.37 -189.24 231.71 C-189.26 219.97 -189.27 208.23 -189.26 196.49 C-189.26 190.14 -189.27 183.79 -189.28 177.43 C-189.3 171.6 -189.3 165.77 -189.29 159.95 C-189.29 157.85 -189.29 155.75 -189.3 153.65 C-189.37 137.18 -188.82 120.01 -182.92 104.41 C-182.63 103.6 -182.33 102.8 -182.03 101.97 C-167.38 63.58 -138.83 34.16 -101.92 16.35 C-90.93 11.79 -79.34 8.66 -67.92 5.35 C-66.91 5.04 -65.9 4.73 -64.86 4.4 C-44.02 -1.48 -21.43 -0.07 0 0 Z " fill="#4EBB4B" transform="translate(557.923936009407,307.6518031358719)"/>
<path d="M0 0 C15.59 12.58 26.28 27.77 29 48 C30.27 70.26 24.55 89.35 9.95 106.4 C4.19 112.58 -2.48 117.18 -10 121 C-10.99 121 -11.98 121 -13 121 C-12.47 121.61 -12.47 121.61 -11.93 122.22 C-10.74 123.58 -9.55 124.94 -8.36 126.3 C-6.64 128.27 -4.91 130.22 -3.17 132.17 C19.71 157.92 38.18 186.94 53 218 C53.72 219.51 53.72 219.51 54.46 221.04 C56.96 226.41 59.12 231.83 61.09 237.41 C61.93 239.81 62.83 242.19 63.75 244.56 C65 248 65 248 65 250 C40.58 250 16.16 250 -9 250 C-10.98 244.72 -12.96 239.44 -15 234 C-27.87 202.93 -45.78 173.03 -68.8 148.37 C-70.66 146.37 -72.45 144.33 -74.23 142.26 C-78.12 137.8 -82.24 133.61 -86.44 129.44 C-87.15 128.72 -87.86 128.01 -88.6 127.27 C-93.23 122.64 -98.01 118.24 -103 114 C-103.66 113.43 -104.33 112.87 -105.01 112.29 C-114.02 104.67 -123.12 97.48 -133 91 C-134.05 90.3 -135.1 89.6 -136.18 88.88 C-151.44 78.83 -167.44 69.74 -184 62 C-184.8 61.62 -185.6 61.24 -186.42 60.85 C-210.23 49.7 -235.17 41.86 -261 37 C-261 43.27 -261 49.54 -261 56 C-259.02 56.33 -257.04 56.66 -255 57 C-240.91 60.02 -227.41 64.8 -214 70 C-213.19 70.31 -212.37 70.63 -211.53 70.95 C-186.41 80.7 -162.51 94.81 -141 111 C-139.94 111.79 -139.94 111.79 -138.86 112.61 C-129.8 119.43 -121.09 126.45 -112.88 134.27 C-110.28 136.73 -107.63 139.09 -104.94 141.44 C-95.7 149.73 -87.54 159.16 -80 169 C-79.57 169.54 -79.15 170.09 -78.71 170.65 C-36 225.04 -36 225.04 -36 250 C-64.38 250 -92.76 250 -122 250 C-126.3 239.25 -126.3 239.25 -128.08 233.89 C-131.23 224.46 -135.29 215.74 -140 207 C-140.37 206.32 -140.73 205.64 -141.11 204.94 C-154.83 179.58 -172.66 154.62 -195.64 136.83 C-197.77 135.18 -199.72 133.45 -201.69 131.62 C-218.94 116.47 -240.11 106.04 -261 97 C-261 104.26 -261 111.52 -261 119 C-259.02 119.66 -257.04 120.32 -255 121 C-237.37 129.32 -221.93 142.57 -208 156 C-207.23 156.72 -206.45 157.44 -205.66 158.19 C-184.54 178.41 -168.91 206.07 -159.19 233.38 C-158.89 234.22 -158.58 235.06 -158.27 235.93 C-157.99 236.75 -157.71 237.56 -157.42 238.4 C-157.17 239.12 -156.92 239.84 -156.66 240.58 C-155.81 243.68 -155.44 246.81 -155 250 C-170.99 250.09 -186.97 250.16 -202.96 250.21 C-210.38 250.23 -217.8 250.26 -225.22 250.3 C-231.69 250.34 -238.16 250.37 -244.63 250.38 C-248.05 250.38 -251.48 250.39 -254.9 250.42 C-258.73 250.46 -262.55 250.46 -266.37 250.45 C-267.51 250.47 -268.65 250.48 -269.82 250.5 C-270.86 250.49 -271.9 250.49 -272.97 250.48 C-273.87 250.48 -274.78 250.49 -275.71 250.49 C-278 250 -278 250 -279.62 248.25 C-281.17 245.72 -281.37 244.42 -281.37 241.48 C-281.38 240.57 -281.38 239.67 -281.39 238.73 C-281.38 237.74 -281.37 236.75 -281.36 235.72 C-281.36 234.67 -281.37 233.61 -281.37 232.52 C-281.37 228.97 -281.36 225.42 -281.34 221.86 C-281.34 219.32 -281.34 216.78 -281.34 214.24 C-281.34 208.76 -281.33 203.28 -281.32 197.8 C-281.29 189.87 -281.28 181.95 -281.28 174.03 C-281.27 161.18 -281.25 148.32 -281.23 135.47 C-281.2 122.98 -281.18 110.5 -281.16 98.01 C-281.16 97.24 -281.16 96.47 -281.16 95.68 C-281.16 91.82 -281.15 87.96 -281.15 84.1 C-281.12 52.06 -281.07 20.03 -281 -12 C-274.4 -12 -267.8 -12 -261 -12 C-261 -7.38 -261 -2.76 -261 2 C-258.9 2.1 -256.79 2.21 -254.62 2.31 C-248.5 2.68 -242.49 3.43 -236.44 4.44 C-235.69 4.56 -234.94 4.68 -234.17 4.81 C-229.95 5.54 -226.06 6.61 -222 8 C-219.92 8.36 -219.92 8.36 -218 8.5 C-214.44 8.8 -211.37 9.84 -208 11 C-206.09 11.55 -204.17 12.09 -202.25 12.62 C-195.1 14.66 -187.99 16.78 -180.88 18.94 C-179.79 19.26 -178.71 19.58 -177.59 19.92 C-171.17 21.88 -165 24.14 -158.84 26.78 C-156.24 27.9 -153.62 28.95 -150.99 29.98 C-145.3 32.24 -139.75 34.8 -134.19 37.38 C-132.61 38.1 -132.61 38.1 -131.01 38.84 C-128.01 40.22 -125 41.61 -122 43 C-120.52 43.68 -119.03 44.37 -117.55 45.05 C-114.7 46.37 -111.85 47.68 -109 49 C-108.96 48.02 -108.96 48.02 -108.92 47.02 C-107.85 29.74 -99.54 15.73 -87 4 C-80.33 -1.43 -73.11 -6.06 -65 -9 C-64.23 -9.28 -63.46 -9.57 -62.66 -9.86 C-41.21 -17.4 -18.41 -12.74 0 0 Z " fill="#8AD045" transform="translate(651,722)"/>
<path d="M0 0 C3.8 0 7.61 0.01 11.41 0.01 C62.71 0.02 113.99 0.47 165.28 1.13 C164.72 5.9 164.15 10.16 162.53 14.71 C162.17 15.72 161.82 16.72 161.45 17.75 C161.06 18.81 160.68 19.86 160.28 20.94 C159.88 22.04 159.47 23.15 159.06 24.29 C149.09 51.05 135 75.35 115.28 96.13 C114.83 96.6 114.39 97.07 113.93 97.56 C89.88 122.92 59.57 137.45 25.28 143.13 C24.57 143.25 23.87 143.38 23.14 143.51 C14.17 145.06 5.15 145.35 -3.93 145.66 C-5.2 145.7 -6.48 145.75 -7.79 145.79 C-20.16 146.18 -32.52 146.31 -44.89 146.36 C-48.82 146.38 -52.75 146.4 -56.68 146.42 C-67.82 146.49 -78.96 146.55 -90.1 146.61 C-96.31 146.63 -102.53 146.67 -108.74 146.71 C-111.99 146.73 -115.25 146.75 -118.5 146.76 C-155.02 146.89 -189.5 151.02 -222.13 168.83 C-223.63 169.65 -225.17 170.39 -226.72 171.13 C-227.38 170.8 -228.04 170.47 -228.72 170.13 C-186.81 130.55 -128.68 108.81 -75.66 88.57 C-74.81 88.24 -73.96 87.92 -73.08 87.58 C-61.17 83.03 -49.17 78.86 -37.06 74.89 C-33.82 73.83 -30.6 72.76 -27.37 71.68 C-23.87 70.51 -20.37 69.35 -16.87 68.18 C-10.7 66.12 -4.53 64.07 1.64 62 C24.81 54.24 48.03 46.65 71.28 39.13 C70.66 39.25 70.04 39.38 69.41 39.51 C65.26 40.35 61.11 41.17 56.94 41.92 C41.94 44.63 27.12 48.07 12.28 51.51 C6.81 52.78 1.33 54.02 -4.16 55.25 C-6.48 55.77 -8.79 56.29 -11.11 56.81 C-12.57 57.14 -14.02 57.47 -15.48 57.79 C-25.41 59.99 -35.14 62.65 -44.88 65.58 C-48.09 66.53 -51.32 67.39 -54.56 68.24 C-125.62 87 -197.63 115.67 -253.63 164.34 C-254.15 164.79 -254.67 165.24 -255.2 165.7 C-256.76 167.11 -256.76 167.11 -258.14 168.8 C-261.65 172.88 -261.65 172.88 -264.78 173.6 C-267.08 173.72 -269.3 173.66 -271.59 173.5 C-272.77 173.46 -272.77 173.46 -273.97 173.42 C-275.89 173.35 -277.8 173.24 -279.72 173.13 C-277.8 165.39 -275.32 158.1 -272.22 150.75 C-271.78 149.72 -271.35 148.68 -270.9 147.61 C-259.73 121.53 -245.14 97.37 -225.88 76.48 C-224.44 74.91 -223.02 73.32 -221.62 71.71 C-206.81 54.75 -189.05 41.52 -169.72 30.13 C-168.62 29.47 -168.62 29.47 -167.49 28.81 C-157.8 23.1 -148.46 18.55 -137.72 15.13 C-136.4 14.64 -135.09 14.14 -133.78 13.63 C-132.85 13.28 -132.85 13.28 -131.9 12.93 C-130.22 12.31 -128.55 11.67 -126.89 11.01 C-87.12 -3.62 -41.61 -0.04 0 0 Z " fill="#FCFAF3" transform="translate(701.7198944091797,530.8714294433594)"/>
<path d="M0 0 C1.65 0.02 3.29 0.03 4.94 0.04 C8.94 0.07 12.94 0.13 16.94 0.19 C8.59 40.92 -13.85 80.01 -42.65 109.72 C-44 111.12 -45.33 112.55 -46.66 113.98 C-68.13 136.45 -96.25 151.22 -126.06 159.19 C-127 159.44 -127.93 159.7 -128.9 159.96 C-155.16 166.85 -181.83 166.03 -208.78 165.95 C-218.61 165.92 -228.43 165.95 -238.25 165.98 C-241.62 165.98 -245 165.97 -248.37 165.96 C-261.87 165.95 -275.17 166.65 -288.61 167.95 C-291.94 168.27 -295.28 168.55 -298.62 168.83 C-351.9 173.77 -403.23 194.66 -441.88 232.25 C-444.06 234.19 -444.06 234.19 -447.06 235.19 C-447.72 236.18 -448.38 237.17 -449.06 238.19 C-449.72 238.19 -450.38 238.19 -451.06 238.19 C-451.32 238.94 -451.58 239.69 -451.84 240.46 C-453.12 243.33 -454.33 244.71 -456.62 246.81 C-460.89 250.89 -464.53 255.34 -468.18 259.96 C-470.06 262.19 -470.06 262.19 -472.06 263.19 C-471.73 261.54 -471.4 259.89 -471.06 258.19 C-470.4 258.19 -469.74 258.19 -469.06 258.19 C-468.69 257.01 -468.69 257.01 -468.31 255.81 C-466.72 251.2 -464.9 246.7 -463.06 242.19 C-462.4 242.19 -461.74 242.19 -461.06 242.19 C-460.86 241.56 -460.65 240.93 -460.44 240.29 C-460.17 239.47 -459.9 238.65 -459.62 237.81 C-459.36 237 -459.09 236.19 -458.82 235.35 C-458.06 233.19 -458.06 233.19 -457.06 231.19 C-456.4 231.19 -455.74 231.19 -455.06 231.19 C-454.98 230.51 -454.9 229.83 -454.81 229.12 C-453.83 225.27 -452.2 222.55 -450.06 219.19 C-449.4 218.86 -448.74 218.53 -448.06 218.19 C-447.34 216.54 -446.67 214.88 -446.06 213.19 C-445.4 213.19 -444.74 213.19 -444.06 213.19 C-444.06 212.2 -444.06 211.21 -444.06 210.19 C-443.4 210.19 -442.74 210.19 -442.06 210.19 C-442.06 209.2 -442.06 208.21 -442.06 207.19 C-440.42 205.49 -438.75 203.83 -437.06 202.19 C-435.14 199.79 -433.36 197.3 -431.56 194.81 C-425.47 186.56 -418.9 178.83 -412.06 171.19 C-411.24 170.25 -410.42 169.32 -409.57 168.36 C-403.76 161.86 -397.65 155.65 -391.52 149.47 C-390.11 148.04 -388.7 146.62 -387.29 145.19 C-381.94 139.83 -376.43 134.86 -370.49 130.15 C-368.2 128.3 -366.03 126.38 -363.88 124.38 C-352.86 114.5 -340.46 106.22 -328.06 98.19 C-327.11 97.56 -326.15 96.94 -325.17 96.29 C-318.69 92.09 -312.03 88.23 -305.29 84.46 C-303.53 83.45 -301.77 82.43 -300.02 81.4 C-291.59 76.45 -283 72.21 -274.06 68.25 C-272.7 67.64 -271.35 67.04 -269.99 66.43 C-241.17 53.59 -241.17 53.59 -226.61 49 C-224.07 48.19 -221.61 47.27 -219.12 46.31 C-211.34 43.46 -203.34 41.34 -195.36 39.12 C-192.37 38.27 -189.38 37.42 -186.39 36.55 C-147.98 25.46 -147.98 25.46 -132.73 23.63 C-129.85 23.28 -127.18 22.82 -124.38 22.12 C-121.2 21.38 -118.34 20.98 -115.06 21.19 C-115.06 20.53 -115.06 19.87 -115.06 19.19 C-112.38 18.71 -109.69 18.23 -107 17.75 C-106.25 17.62 -105.5 17.48 -104.72 17.34 C-101.21 16.72 -97.71 16.14 -94.18 15.65 C-91.07 15.29 -91.07 15.29 -88.25 14.19 C-84.61 13.05 -81.22 12.78 -77.44 12.47 C-74.92 12.25 -74.92 12.25 -72.06 11.19 C-68.53 10.01 -65.22 9.78 -61.52 9.47 C-58.25 9.09 -55.22 8.12 -52.06 7.19 C-50.4 7.19 -48.73 7.19 -47.06 7.19 C-46.28 6.86 -45.5 6.53 -44.69 6.19 C-41.37 4.92 -38.6 5.19 -35.06 5.19 C-30.88 4.31 -27.36 3.32 -23.43 1.62 C-15.93 -0.89 -7.81 -0.12 0 0 Z " fill="#2B973C" transform="translate(919.0625,311.8125)"/>
<path d="M0 0 C0.33 0 0.66 0 1 0 C1 9.57 1 19.14 1 29 C10.82 30.01 10.82 30.01 20.62 29.5 C23.82 29.03 25.92 29.13 29 30 C29 30.66 29 31.32 29 32 C30.98 32.33 32.96 32.66 35 33 C29.45 35.07 23.47 32.37 18 31 C18 37.27 18 43.54 18 50 C19.98 50.33 21.96 50.66 24 51 C38.09 54.02 51.59 58.8 65 64 C65.81 64.31 66.63 64.63 67.47 64.95 C92.59 74.7 116.49 88.81 138 105 C139.06 105.79 139.06 105.79 140.14 106.61 C149.2 113.43 157.91 120.45 166.12 128.27 C168.72 130.73 171.37 133.09 174.06 135.44 C183.3 143.73 191.46 153.16 199 163 C199.43 163.54 199.85 164.09 200.29 164.65 C243 219.04 243 219.04 243 244 C214.62 244 186.24 244 157 244 C152.7 233.25 152.7 233.25 150.92 227.89 C147.77 218.46 143.71 209.74 139 201 C138.63 200.32 138.27 199.64 137.89 198.94 C124.17 173.58 106.34 148.62 83.36 130.83 C81.23 129.18 79.28 127.45 77.31 125.62 C60.06 110.47 38.89 100.04 18 91 C18 98.26 18 105.52 18 113 C19.98 113.66 21.96 114.32 24 115 C41.63 123.32 57.07 136.57 71 150 C71.77 150.72 72.55 151.44 73.34 152.19 C94.46 172.41 110.09 200.07 119.81 227.38 C120.11 228.22 120.42 229.06 120.73 229.93 C121.01 230.75 121.29 231.56 121.58 232.4 C121.83 233.12 122.08 233.84 122.34 234.58 C123.18 237.65 123.55 240.84 124 244 C83.41 244 42.82 244 1 244 C-0.72 240.55 0.19 236.55 0.4 232.77 C1.29 214.48 1.36 196.17 1.56 177.86 C1.61 172.63 1.68 167.4 1.74 162.17 C1.79 158.1 1.84 154.03 1.88 149.96 C1.9 148.03 1.93 146.11 1.95 144.18 C2.17 131.57 2.17 131.57 1.23 119.02 C0.85 115.68 0.89 112.39 0.9 109.02 C0.9 108.33 0.91 107.63 0.91 106.91 C0.91 104.73 0.92 102.55 0.94 100.38 C0.94 98.88 0.95 97.38 0.95 95.89 C0.96 92.26 0.98 88.63 1 85 C0.34 84.67 -0.32 84.34 -1 84 C-1.02 73.2 -1.04 62.39 -1.05 51.59 C-1.06 46.57 -1.06 41.55 -1.08 36.54 C-1.09 31.7 -1.09 26.86 -1.09 22.03 C-1.1 20.18 -1.1 18.33 -1.11 16.48 C-1.11 13.9 -1.11 11.31 -1.11 8.73 C-1.12 7.96 -1.12 7.19 -1.12 6.39 C-1.11 1.11 -1.11 1.11 0 0 Z " fill="#85CB3C" transform="translate(372,728)"/>
<path d="M0 0 C15.59 12.58 26.28 27.77 29 48 C30.27 70.26 24.55 89.35 9.95 106.4 C4.56 112.18 -5.67 121.67 -14 122 C-15.92 120.64 -15.92 120.64 -17.75 118.69 C-18.36 118.05 -18.98 117.42 -19.61 116.76 C-21 115 -21 115 -21 113 C-21.59 112.74 -22.17 112.49 -22.78 112.22 C-25.2 110.89 -26.68 109.46 -28.56 107.44 C-32.52 103.38 -36.75 99.82 -41.17 96.27 C-42.97 94.83 -44.75 93.37 -46.52 91.89 C-64.44 76.84 -84.16 64.7 -104.35 52.99 C-105.93 52.04 -107.47 51.02 -109 50 C-108.34 31.38 -100.59 16.72 -87 4 C-80.33 -1.43 -73.11 -6.06 -65 -9 C-64.23 -9.28 -63.46 -9.57 -62.66 -9.86 C-41.21 -17.4 -18.41 -12.74 0 0 Z " fill="#FAC128" transform="translate(651,722)"/>
<path d="M0 0 C4.34 0.57 7.98 1.17 11.94 3.06 C13.1 3.61 13.1 3.61 14.28 4.16 C14.85 4.44 15.41 4.71 16 5 C16.03 7.12 16.05 9.25 16.06 11.38 C16.07 12.56 16.09 13.74 16.1 14.96 C16 18 16 18 15 20 C15.66 20 16.32 20 17 20 C17 22.31 17 24.62 17 27 C17.83 27.24 18.66 27.48 19.52 27.73 C38.7 34.7 55.52 50.05 70 64 C70.77 64.72 71.55 65.44 72.34 66.19 C93.46 86.41 109.09 114.07 118.81 141.38 C119.11 142.22 119.42 143.06 119.73 143.93 C120.01 144.75 120.29 145.56 120.58 146.4 C120.83 147.12 121.08 147.84 121.34 148.58 C122.18 151.65 122.55 154.84 123 158 C82.41 158 41.82 158 0 158 C-1.72 154.55 -0.81 150.55 -0.6 146.77 C0.29 128.48 0.36 110.17 0.56 91.86 C0.61 86.63 0.68 81.4 0.74 76.17 C0.79 72.1 0.84 68.03 0.88 63.96 C0.9 62.03 0.93 60.11 0.95 58.18 C1.17 45.57 1.17 45.57 0.23 33 C-0.14 29.75 -0.11 26.51 -0.1 23.24 C-0.1 22.57 -0.09 21.89 -0.09 21.2 C-0.09 19.09 -0.08 16.98 -0.06 14.88 C-0.06 13.43 -0.05 11.98 -0.05 10.53 C-0.04 7.02 -0.02 3.51 0 0 Z " fill="#6DC038" transform="translate(373,814)"/>
<path d="M0 0 C-2.93 2.93 -6.58 3.65 -10.44 4.87 C-11.3 5.15 -12.17 5.43 -13.05 5.71 C-14.92 6.31 -16.78 6.91 -18.64 7.51 C-22.58 8.76 -26.51 10.03 -30.44 11.3 C-32.43 11.94 -34.43 12.59 -36.42 13.23 C-45.07 16.01 -53.7 18.86 -62.31 21.75 C-63.65 22.2 -64.99 22.65 -66.33 23.1 C-68.3 23.75 -70.27 24.41 -72.24 25.07 C-76.69 26.56 -81.13 28.04 -85.58 29.52 C-91.81 31.58 -98.04 33.66 -104.26 35.75 C-106.75 36.58 -109.23 37.41 -111.72 38.23 C-175.13 59.21 -242.85 84.24 -295 127 C-295.83 127.65 -295.83 127.65 -296.69 128.32 C-300.14 131.06 -300.14 131.06 -302 135 C-337.89 136.19 -337.89 136.19 -352 136 C-352 135.67 -352 135.34 -352 135 C-350.44 135.07 -350.44 135.07 -348.85 135.13 C-340.53 135.27 -340.53 135.27 -333.1 132.02 C-330.62 129.43 -328.32 126.73 -326 124 C-322.49 120.8 -318.76 117.89 -315 115 C-314.34 114.49 -313.68 113.98 -313 113.45 C-260.21 72.97 -195.93 47.48 -132.07 30.37 C-128.05 29.29 -124.05 28.16 -120.06 27 C-100.03 21.26 -79.78 16.58 -59.47 12.01 C-55.11 11.03 -50.75 10.03 -46.39 9.04 C-44.33 8.57 -42.27 8.1 -40.21 7.63 C-38.33 7.21 -36.45 6.78 -34.56 6.35 C-27.12 4.66 -19.66 3.11 -12.17 1.64 C-10.35 1.27 -8.54 0.88 -6.74 0.42 C-4.47 -0.13 -2.33 -0.06 0 0 Z " fill="#072117" transform="translate(775,569)"/>
<path d="M0 0 C1.73 -0 3.46 -0 5.2 -0.01 C9.92 -0.01 14.64 -0 19.36 0.01 C24.47 0.02 29.58 0.01 34.69 0.01 C43.52 0.01 52.36 0.02 61.19 0.03 C73.97 0.05 86.74 0.05 99.52 0.05 C120.25 0.06 140.97 0.07 161.7 0.09 C181.83 0.11 201.96 0.12 222.09 0.13 C223.96 0.13 223.96 0.13 225.86 0.13 C232.09 0.13 238.32 0.14 244.55 0.14 C296.19 0.16 347.84 0.2 399.49 0.24 C399.16 1.56 398.83 2.88 398.49 4.24 C396.96 4.27 396.96 4.27 395.4 4.3 C391.59 4.38 387.78 4.47 383.97 4.56 C382.33 4.6 380.69 4.63 379.04 4.66 C376.67 4.71 374.3 4.77 371.92 4.83 C370.84 4.84 370.84 4.84 369.73 4.86 C366.05 4.97 362.77 5.35 359.21 6.33 C355.71 7.19 354.7 7.33 351.49 6.24 C351.16 5.91 350.83 5.58 350.49 5.24 C348.64 5.14 346.78 5.11 344.93 5.11 C343.11 5.11 343.11 5.11 341.26 5.11 C339.89 5.11 338.53 5.11 337.17 5.11 C335.73 5.11 334.3 5.11 332.86 5.11 C328.9 5.1 324.94 5.11 320.97 5.11 C316.71 5.11 312.44 5.11 308.17 5.11 C299.8 5.1 291.42 5.1 283.05 5.11 C276.24 5.11 269.43 5.11 262.61 5.11 C261.16 5.11 261.16 5.11 259.68 5.11 C257.71 5.11 255.74 5.11 253.78 5.11 C235.29 5.1 216.81 5.11 198.33 5.11 C182.49 5.12 166.66 5.11 150.83 5.11 C132.44 5.1 114.05 5.1 95.66 5.11 C93.7 5.11 91.73 5.11 89.77 5.11 C88.8 5.11 87.83 5.11 86.83 5.11 C80.05 5.11 73.26 5.11 66.47 5.1 C58.17 5.1 49.87 5.1 41.58 5.11 C37.35 5.11 33.12 5.11 28.9 5.11 C0.63 4.97 0.63 4.97 -27.51 7.24 C-29.62 7.35 -31.72 7.41 -33.83 7.43 C-35.34 7.45 -35.34 7.45 -36.88 7.47 C-39.51 7.24 -39.51 7.24 -42.51 5.24 C-28.4 0.92 -14.64 -0.06 0 0 Z " fill="#A1EE72" transform="translate(537.5144958496094,307.7594909667969)"/>
<path d="M0 0 C6.57 0.54 12.16 2.24 18.31 4.56 C19.28 4.92 20.24 5.28 21.23 5.65 C24.16 6.75 27.08 7.87 30 9 C30.83 9.32 31.66 9.64 32.52 9.97 C57.62 19.72 81.5 33.82 103 50 C103.71 50.53 104.41 51.06 105.14 51.61 C114.2 58.43 122.91 65.45 131.12 73.27 C133.72 75.73 136.37 78.09 139.06 80.44 C148.3 88.73 156.46 98.16 164 108 C164.43 108.54 164.85 109.09 165.29 109.65 C178.83 126.88 194.44 147.84 201 169 C200.67 169.99 200.34 170.98 200 172 C197 171 197 171 195.99 169.24 C195.54 168.12 195.54 168.12 195.09 166.98 C188.35 150.84 179.01 136.28 169 122 C168.57 121.39 168.15 120.78 167.71 120.15 C154.56 101.57 138.31 84.73 121 70 C120.4 69.49 119.8 68.97 119.18 68.45 C108.63 59.52 97.55 51.58 86 44 C84.82 43.22 84.82 43.22 83.61 42.42 C60.66 27.36 36.15 15.06 10.09 6.38 C9.38 6.14 8.66 5.9 7.93 5.65 C6.29 5.1 4.65 4.55 3 4 C2.34 3.67 1.68 3.34 1 3 C0.67 2.01 0.34 1.02 0 0 Z " fill="#9CDC50" transform="translate(407,783)"/>
<path d="M0 0 C4.31 0.57 7.78 1.61 11.71 3.44 C13.32 4.19 13.32 4.19 14.96 4.95 C16.09 5.48 17.21 6.01 18.38 6.56 C19.54 7.11 20.7 7.65 21.9 8.21 C46.54 19.79 70.12 32.73 92 49 C92.69 49.51 93.39 50.03 94.1 50.56 C102.76 57.02 111.09 63.63 119 71 C120.41 72.26 121.83 73.51 123.25 74.75 C123.89 75.31 124.54 75.88 125.2 76.46 C126.79 77.82 128.42 79.13 130.06 80.44 C133.04 83.03 135.47 85.77 138.02 88.77 C140.21 91.23 142.52 93.52 144.88 95.81 C150.01 100.9 154.5 106.35 159 112 C159.89 113.06 160.78 114.13 161.67 115.19 C191 150.45 191 150.45 191 162 C187.57 160.86 187.32 160.35 185.54 157.38 C184.84 156.24 184.84 156.24 184.13 155.07 C183.63 154.24 183.14 153.42 182.62 152.56 C173.8 138.23 164.04 124.71 153 112 C152.39 111.29 151.78 110.58 151.14 109.84 C149.44 107.88 147.73 105.94 146 104 C145.33 103.23 144.65 102.47 143.96 101.68 C136.45 93.21 128.61 85.05 119.98 77.71 C118.62 76.54 117.29 75.33 115.99 74.1 C108.01 66.61 99.19 60.22 90.38 53.75 C88.34 52.25 86.32 50.75 84.3 49.23 C75.37 42.63 65.92 36.96 56.33 31.36 C54.26 30.15 52.2 28.93 50.14 27.71 C38.09 20.65 25.42 15.13 12.63 9.58 C8.41 7.74 4.2 5.88 0 4 C0 2.68 0 1.36 0 0 Z " fill="#A1E058" transform="translate(497,752)"/>
<path d="M0 0 C2 4 2 4 2 6 C2.71 6.27 3.42 6.54 4.15 6.82 C21.64 14.06 37.88 25.74 53 37 C53.53 37.39 54.07 37.79 54.61 38.19 C66.12 46.73 77.25 55.92 87.23 66.22 C89.78 68.78 92.5 71.11 95.24 73.46 C96.91 74.92 98.52 76.34 100 78 C100 78.66 100 79.32 100 80 C100.66 80.33 101.32 80.66 102 81 C99.36 81.99 96.72 82.98 94 84 C92.83 82.88 91.66 81.75 90.5 80.62 C89.85 80 89.2 79.37 88.53 78.73 C87 77 87 77 87 75 C86.41 74.74 85.83 74.49 85.22 74.22 C82.8 72.89 81.32 71.46 79.44 69.44 C75.48 65.38 71.25 61.82 66.83 58.27 C65.03 56.83 63.25 55.37 61.48 53.89 C43.56 38.84 23.84 26.7 3.65 14.99 C2.07 14.04 0.53 13.02 -1 12 C-0.67 8.04 -0.34 4.08 0 0 Z " fill="#AA8517" transform="translate(543,760)"/>
<path d="M0 0 C1.32 -0 2.64 -0 4 -0 C7.56 -0 11.13 0.01 14.7 0.02 C18.44 0.04 22.19 0.04 25.94 0.04 C33.01 0.05 40.08 0.06 47.15 0.08 C55.21 0.11 63.27 0.12 71.33 0.13 C87.9 0.15 104.46 0.18 121.02 0.23 C121.02 0.56 121.02 0.89 121.02 1.23 C89.34 1.56 57.66 1.89 25.02 2.23 C142.83 2.23 260.64 2.23 382.02 2.23 C382.02 1.9 382.02 1.57 382.02 1.23 C388.95 1.23 395.88 1.23 403.02 1.23 C402.69 2.22 402.36 3.21 402.02 4.23 C400.49 4.26 400.49 4.26 398.93 4.29 C395.12 4.36 391.31 4.45 387.5 4.54 C385.86 4.58 384.22 4.62 382.58 4.65 C380.2 4.7 377.83 4.75 375.46 4.81 C374.37 4.83 374.37 4.83 373.26 4.85 C369.58 4.95 366.3 5.34 362.74 6.32 C359.24 7.17 358.23 7.31 355.02 6.23 C354.69 5.9 354.36 5.57 354.02 5.23 C352.17 5.13 350.32 5.1 348.47 5.1 C346.65 5.1 346.65 5.1 344.79 5.09 C343.43 5.1 342.06 5.1 340.7 5.1 C339.27 5.1 337.83 5.1 336.39 5.1 C332.43 5.09 328.47 5.09 324.51 5.1 C320.24 5.1 315.97 5.1 311.7 5.09 C303.33 5.09 294.96 5.09 286.58 5.09 C279.77 5.09 272.96 5.09 266.15 5.09 C264.69 5.09 264.69 5.09 263.21 5.09 C261.24 5.09 259.28 5.09 257.31 5.09 C238.83 5.09 220.34 5.09 201.86 5.1 C186.03 5.1 170.19 5.1 154.36 5.1 C135.97 5.09 117.58 5.09 99.2 5.09 C97.23 5.09 95.26 5.09 93.3 5.09 C92.33 5.09 91.36 5.09 90.37 5.09 C83.58 5.09 76.79 5.09 70 5.09 C61.7 5.09 53.41 5.09 45.11 5.09 C40.88 5.1 36.66 5.1 32.43 5.09 C4.16 4.95 4.16 4.95 -23.98 7.23 C-26.08 7.33 -28.19 7.4 -30.29 7.41 C-31.8 7.44 -31.8 7.44 -33.35 7.46 C-35.98 7.23 -35.98 7.23 -38.98 5.23 C-26.1 1.28 -13.44 -0.08 0 0 Z " fill="#90E369" transform="translate(533.98193359375,307.77294921875)"/>
<path d="M0 0 C0 0.99 0 1.98 0 3 C-3.53 4.5 -6.95 5.53 -10.69 6.38 C-15.45 7.54 -19.86 9 -24.37 10.91 C-27.38 12.16 -30.44 13.26 -33.5 14.38 C-38.59 16.32 -43.11 18.63 -47.68 21.57 C-50 23 -50 23 -52.94 24.43 C-83.31 39.99 -103.97 70.68 -115 102 C-115.37 103.66 -115.73 105.32 -116 107 C-117.98 107.5 -117.98 107.5 -120 108 C-118.64 81.34 -97.23 53.63 -78.12 36.38 C-61.88 22.71 -44.25 11.58 -24 5 C-22.61 4.53 -21.23 4.06 -19.84 3.58 C-18.44 3.12 -17.03 2.65 -15.62 2.19 C-14.66 1.86 -14.66 1.86 -13.68 1.52 C-8.92 0 -4.93 -0.19 0 0 Z " fill="#78DA62" transform="translate(494,314)"/>
<path d="M0 0 C0.33 0 0.66 0 1 0 C1 33.66 1 67.32 1 102 C1.99 102.33 2.98 102.66 4 103 C3.99 104.36 3.99 104.36 3.98 105.75 C3.97 109.17 3.95 112.59 3.95 116.01 C3.94 117.48 3.93 118.95 3.92 120.42 C3.91 122.56 3.91 124.69 3.9 126.83 C3.9 128.11 3.89 129.38 3.89 130.7 C3.92 133.92 4.19 137.07 4.51 140.27 C5.29 149.11 5.03 157.94 4.91 166.8 C4.89 168.72 4.87 170.64 4.85 172.56 C4.8 176.58 4.76 180.59 4.7 184.61 C4.64 189.69 4.58 194.76 4.52 199.84 C4.31 219.91 4.08 239.96 3 260 C2.34 260 1.68 260 1 260 C-0.17 257.67 -0.12 256.32 -0.12 253.72 C-0.13 252.82 -0.13 251.92 -0.13 250.99 C-0.13 249.99 -0.12 248.99 -0.12 247.96 C-0.12 246.91 -0.12 245.85 -0.12 244.77 C-0.12 241.21 -0.12 237.65 -0.11 234.09 C-0.11 231.55 -0.11 229.01 -0.11 226.46 C-0.11 220.98 -0.11 215.49 -0.11 210.01 C-0.1 202.08 -0.09 194.15 -0.09 186.22 C-0.09 173.35 -0.08 160.49 -0.08 147.62 C-0.07 135.12 -0.06 122.62 -0.05 110.12 C-0.05 109.35 -0.05 108.58 -0.05 107.79 C-0.05 103.92 -0.05 100.06 -0.05 96.2 C-0.04 64.13 -0.02 32.07 0 0 Z " fill="#91DF53" transform="translate(370,710)"/>
<path d="M0 0 C1.15 0 1.15 0 2.32 0.01 C4.73 0.02 7.15 0.04 9.56 0.07 C11.21 0.08 12.86 0.09 14.51 0.1 C18.53 0.12 22.55 0.15 26.56 0.2 C18.21 40.92 -4.23 80.02 -33.02 109.73 C-34.38 111.13 -35.71 112.56 -37.04 113.98 C-48.75 126.25 -62.62 136.02 -77.44 144.2 C-79.04 145.09 -79.04 145.09 -80.68 146 C-83.44 147.2 -83.44 147.2 -86.44 146.2 C-85.68 145.8 -84.92 145.4 -84.14 144.99 C-83.14 144.46 -82.15 143.93 -81.12 143.38 C-80.14 142.86 -79.15 142.34 -78.14 141.8 C-75.8 140.41 -74.29 139.13 -72.44 137.2 C-71.26 136.76 -71.26 136.76 -70.06 136.32 C-67.38 135.17 -66.05 133.86 -64.09 131.76 C-59.82 127.72 -54.6 123.61 -49.22 121.21 C-46.92 119.9 -46.56 118.56 -45.44 116.2 C-43.67 114.48 -43.67 114.48 -41.62 112.82 C-39 110.61 -36.69 108.45 -34.56 105.76 C-33.51 104.49 -33.51 104.49 -32.44 103.2 C-31.78 103.2 -31.12 103.2 -30.44 103.2 C-30.18 102.63 -29.93 102.07 -29.67 101.48 C-28.28 98.9 -26.62 96.83 -24.75 94.57 C-21.4 90.45 -18.28 86.25 -15.28 81.87 C-13.97 79.97 -12.64 78.1 -11.28 76.24 C-5.32 67.96 -0.75 59.42 3.56 50.2 C4.01 49.25 4.46 48.3 4.92 47.32 C6.39 44.18 7.85 41.03 9.31 37.88 C10 36.4 10 36.4 10.71 34.88 C13.3 29.23 15.62 23.55 17.68 17.68 C18.29 15.95 18.95 14.23 19.64 12.53 C20.58 10.16 21.17 7.88 21.69 5.38 C21.86 4.59 22.02 3.8 22.2 2.99 C22.38 2.1 22.38 2.1 22.56 1.2 C21.91 1.27 21.25 1.34 20.58 1.41 C15.66 1.91 10.82 2.25 5.88 2.2 C-1.59 2.12 -9 2.67 -16.44 3.2 C-16.44 2.87 -16.44 2.54 -16.44 2.2 C-10.8 0.59 -5.85 -0.08 0 0 Z " fill="#4DC153" transform="translate(909.4375,311.8046875)"/>
<path d="M0 0 C4.52 0.58 7.98 2.42 11.81 4.75 C12.46 5.14 13.11 5.53 13.78 5.94 C25.47 13.21 36.01 22.57 46 32 C46.81 32.75 47.61 33.51 48.44 34.28 C64.12 49.39 75.73 67.94 86 87 C86.42 87.76 86.84 88.53 87.27 89.32 C88.23 91.54 87.8 92.77 87 95 C87 94.34 87 93.68 87 93 C86.01 93 85.02 93 84 93 C83.42 91.83 82.83 90.65 82.23 89.44 C72.83 70.83 60.97 54.65 46.94 39.25 C46.47 38.73 46 38.21 45.51 37.68 C39.22 30.87 32.05 25.11 24.69 19.5 C23.58 18.65 23.58 18.65 22.45 17.79 C17.54 14.08 12.58 10.63 7.3 7.46 C4.69 5.8 2.32 4.04 0 2 C0 1.34 0 0.68 0 0 Z " fill="#8CD64C" transform="translate(396,845)"/>
<path d="M0 0 C0.33 0 0.66 0 1 0 C1 28.05 1 56.1 1 85 C8.92 84.5 8.92 84.5 17 84 C18.49 84.5 18.49 84.5 20 85 C20 83.68 20 82.36 20 81 C20.66 81 21.32 81 22 81 C22 83.64 22 86.28 22 89 C21.5 88.01 21.5 88.01 21 87 C14.4 87 7.8 87 1 87 C1 172.14 1 257.28 1 345 C0.67 345 0.34 345 0 345 C0 231.15 0 117.3 0 0 Z " fill="#375F1D" transform="translate(369,623)"/>
<path d="M0 0 C1.32 -0 2.64 -0 4 -0 C7.56 -0 11.13 0.01 14.7 0.02 C18.44 0.04 22.19 0.04 25.94 0.04 C33.01 0.05 40.08 0.06 47.15 0.08 C55.21 0.11 63.27 0.12 71.33 0.13 C87.9 0.15 104.46 0.18 121.02 0.23 C121.02 0.56 121.02 0.89 121.02 1.23 C58.15 1.72 58.15 1.72 -5.98 2.23 C-5.98 2.89 -5.98 3.55 -5.98 4.23 C-3.01 4.23 -0.04 4.23 3.02 4.23 C3.02 4.56 3.02 4.89 3.02 5.23 C1.74 5.29 0.46 5.35 -0.86 5.41 C-2.57 5.5 -4.27 5.58 -5.98 5.66 C-6.82 5.7 -7.66 5.74 -8.52 5.78 C-12.44 5.98 -16.32 6.23 -20.21 6.75 C-23.61 7.18 -26.87 7.39 -30.29 7.41 C-31.8 7.44 -31.8 7.44 -33.35 7.46 C-35.98 7.23 -35.98 7.23 -38.98 5.23 C-26.1 1.28 -13.44 -0.08 0 0 Z " fill="#84CC5F" transform="translate(533.98193359375,307.77294921875)"/>
<path d="M0 0 C6.93 0 13.86 0 21 0 C20.67 0.99 20.34 1.98 20 3 C18.47 3.03 18.47 3.03 16.91 3.06 C13.1 3.14 9.3 3.23 5.49 3.32 C3.84 3.36 2.2 3.39 0.56 3.42 C-1.82 3.47 -4.19 3.53 -6.56 3.59 C-7.65 3.6 -7.65 3.6 -8.76 3.62 C-12.44 3.73 -15.72 4.11 -19.28 5.09 C-22.78 5.95 -23.79 6.09 -27 5 C-27.5 4.5 -27.5 4.5 -28 4 C-29.58 3.89 -31.17 3.85 -32.75 3.84 C-33.78 3.83 -34.81 3.82 -35.87 3.81 C-37.57 3.8 -37.57 3.8 -39.31 3.79 C-40.5 3.78 -41.69 3.77 -42.92 3.76 C-46.19 3.74 -49.46 3.72 -52.74 3.7 C-56.15 3.67 -59.57 3.65 -62.99 3.62 C-69.46 3.57 -75.93 3.53 -82.41 3.48 C-89.78 3.43 -97.15 3.38 -104.51 3.32 C-119.68 3.21 -134.84 3.1 -150 3 C-150 2.67 -150 2.34 -150 2 C-100.5 1.67 -51 1.34 0 1 C0 0.67 0 0.34 0 0 Z " fill="#8BDF63" transform="translate(916,309)"/>
<path d="M0 0 C1.15 0 1.15 0 2.32 0.01 C4.73 0.02 7.15 0.04 9.56 0.07 C11.21 0.08 12.86 0.09 14.51 0.1 C18.53 0.12 22.55 0.15 26.56 0.2 C25.16 7.13 23.21 13.71 20.88 20.38 C20.53 21.39 20.18 22.39 19.82 23.42 C16.99 31.37 13.65 38.82 9.56 46.2 C7.43 42.79 7.43 42.79 8.01 40.16 C8.33 39.44 8.65 38.73 8.98 38 C9.32 37.21 9.67 36.41 10.03 35.6 C10.41 34.76 10.79 33.93 11.19 33.07 C11.94 31.35 12.7 29.63 13.46 27.9 C14.16 26.33 14.86 24.76 15.56 23.2 C18.69 15.99 20.82 8.86 22.56 1.2 C21.91 1.27 21.25 1.34 20.58 1.41 C15.66 1.91 10.82 2.25 5.88 2.2 C-1.59 2.12 -9 2.67 -16.44 3.2 C-16.44 2.87 -16.44 2.54 -16.44 2.2 C-10.8 0.59 -5.85 -0.08 0 0 Z " fill="#55C653" transform="translate(909.4375,311.8046875)"/>
<path d="M0 0 C-2.09 2.09 -3.12 2.53 -5.87 3.42 C-6.66 3.68 -7.46 3.94 -8.27 4.21 C-9.56 4.62 -9.56 4.62 -10.88 5.04 C-11.76 5.32 -12.64 5.61 -13.54 5.9 C-15.4 6.51 -17.27 7.11 -19.13 7.71 C-21.99 8.62 -24.85 9.55 -27.7 10.48 C-29.51 11.06 -31.32 11.64 -33.12 12.23 C-33.98 12.5 -34.84 12.78 -35.73 13.07 C-36.92 13.45 -36.92 13.45 -38.13 13.84 C-38.83 14.06 -39.53 14.29 -40.25 14.52 C-42 15 -42 15 -44 15 C-44.33 14.01 -44.66 13.02 -45 12 C-44.67 11.34 -44.34 10.68 -44 10 C-44.99 9.67 -45.98 9.34 -47 9 C-35.31 6.43 -23.62 3.87 -11.86 1.58 C-10.16 1.23 -8.46 0.86 -6.78 0.43 C-4.49 -0.12 -2.34 -0.06 0 0 Z " fill="#13271E" transform="translate(775,569)"/>
<path d="M0 0 C0 3 0 3 -1.68 4.9 C-2.4 5.57 -3.13 6.25 -3.88 6.94 C-6.82 9.59 -6.82 9.59 -8.85 12.91 C-10.67 16.21 -13.58 18.26 -16.5 20.56 C-17.15 21.08 -17.81 21.6 -18.48 22.14 C-27.72 29.31 -38.2 36.42 -49 41 C-49.99 40.67 -50.98 40.34 -52 40 C-51.24 39.6 -50.48 39.2 -49.7 38.79 C-48.71 38.26 -47.71 37.73 -46.69 37.19 C-45.21 36.4 -45.21 36.4 -43.7 35.61 C-41.36 34.21 -39.85 32.94 -38 31 C-37.22 30.71 -36.43 30.42 -35.62 30.12 C-32.94 28.98 -31.62 27.67 -29.65 25.57 C-25.39 21.52 -20.17 17.41 -14.79 15.01 C-12.48 13.71 -12.12 12.36 -11 10 C-9.16 8.18 -9.16 8.18 -7.06 6.44 C-4.6 4.37 -2.24 2.31 0 0 Z " fill="#42B74E" transform="translate(875,418)"/>
<path d="M0 0 C0.33 0 0.66 0 1 0 C1 28.05 1 56.1 1 85 C8.92 84.5 8.92 84.5 17 84 C18.49 84.5 18.49 84.5 20 85 C20 83.68 20 82.36 20 81 C20.66 81 21.32 81 22 81 C22 83.64 22 86.28 22 89 C21.5 88.01 21.5 88.01 21 87 C14.07 87 7.14 87 0 87 C0 58.29 0 29.58 0 0 Z " fill="#116C28" transform="translate(369,623)"/>
<path d="M0 0 C20.46 0 40.92 0 62 0 C62 0.33 62 0.66 62 1 C41.29 2.98 20.79 3.24 0 3 C0 2.01 0 1.02 0 0 Z " fill="#A5F074" transform="translate(716,308)"/>
<path d="M0 0 C2.39 7.18 -1.57 14.62 -4.71 21.04 C-6.6 25.37 -7.74 29.87 -8.91 34.45 C-10 37 -10 37 -12.12 37.87 C-12.74 37.91 -13.36 37.95 -14 38 C-13.3 24.16 -6.25 12.07 0 0 Z " fill="#61D65C" transform="translate(388,384)"/>
<path d="M0 0 C2 0 2 0 4.12 1.88 C6 4 6 4 6 6 C6.99 6.33 7.98 6.66 9 7 C10.88 9.17 12.64 11.34 14.38 13.62 C14.84 14.23 15.31 14.83 15.8 15.46 C18.97 19.57 22 23.76 25 28 C24.67 28.66 24.34 29.32 24 30 C19.57 27.74 17.28 25.07 14.38 21.06 C9.36 14.28 3.8 8.12 -2 2 C-1.34 1.34 -0.68 0.68 0 0 Z " fill="#99DA4D" transform="translate(471,869)"/>
<path d="M0 0 C9.29 0.3 17.39 3.25 26.05 6.35 C28.02 7.01 29.98 7.52 32 8 C31.67 9.32 31.34 10.64 31 12 C27.09 11.58 23.66 10.57 20 9.19 C13.44 6.72 6.75 4.85 0 3 C0 2.01 0 1.02 0 0 Z " fill="#9EDE53" transform="translate(445,735)"/>
<path d="M0 0 C3.73 1.46 5.02 3.19 6.95 6.65 C7.46 7.57 7.98 8.49 8.52 9.45 C9.05 10.41 9.58 11.38 10.12 12.38 C10.66 13.33 11.2 14.29 11.75 15.28 C13.19 17.85 14.61 20.41 16 23 C16.39 23.71 16.79 24.43 17.19 25.17 C18.22 27.49 17.84 28.66 17 31 C17 30.34 17 29.68 17 29 C16.01 29 15.02 29 14 29 C13.72 28.46 13.44 27.92 13.15 27.37 C11.85 24.89 10.55 22.41 9.25 19.94 C8.81 19.09 8.36 18.24 7.91 17.37 C5.9 13.55 3.88 9.77 1.67 6.07 C0 3 0 3 0 0 Z " fill="#89D449" transform="translate(466,909)"/>
<path d="M0 0 C2.98 2.74 4.83 5.21 6.54 8.88 C6.98 9.8 7.41 10.72 7.86 11.67 C8.3 12.62 8.74 13.58 9.19 14.56 C9.64 15.52 10.09 16.48 10.55 17.47 C13.82 24.45 13.82 24.45 15 28 C14.67 28.66 14.34 29.32 14 30 C13.34 30 12.68 30 12 30 C11.49 28.97 10.98 27.95 10.46 26.89 C6.8 19.51 3.1 12.2 -0.97 5.04 C-2 3 -2 3 -2 1 C-1.34 0.67 -0.68 0.34 0 0 Z " fill="#9BDC54" transform="translate(689,914)"/>
<path d="M0 0 C0.71 1.72 0.71 1.72 1 4 C-0.37 6.12 -0.37 6.12 -2.44 8.44 C-6.72 13.48 -10.01 18.73 -13.34 24.41 C-15 27 -15 27 -17 28 C-16.18 20.74 -9.01 0 0 0 Z " fill="#6EDD63" transform="translate(404,365)"/>
<path d="M0 0 C0 0.99 0 1.98 0 3 C-3.68 4.57 -7.3 5.64 -11.19 6.56 C-15.21 7.48 -15.21 7.48 -19 9 C-21 9.04 -23 9.04 -25 9 C-24.97 7.17 -24.97 7.17 -24 5 C-21.43 3.85 -19.12 3.02 -16.44 2.25 C-15.75 2.03 -15.05 1.81 -14.34 1.58 C-9.42 0.11 -5.13 -0.21 0 0 Z " fill="#81DF63" transform="translate(494,314)"/>
<path d="M0 0 C2.31 0 4.62 0 7 0 C7 0.33 7 0.66 7 1 C5.02 1 3.04 1 1 1 C1 1.66 1 2.32 1 3 C2.32 3.33 3.64 3.66 5 4 C-12.47 6.69 -12.47 6.69 -18 3 C-12.69 0.76 -7.68 0.56 -2 1 C-1.34 1.33 -0.68 1.66 0 2 C0 1.34 0 0.68 0 0 Z " fill="#8AE567" transform="translate(513,310)"/>
<path d="M0 0 C6.38 -0.57 12.39 0.85 18 4 C18.82 6.14 18.82 6.14 19 8 C12.09 7.53 6.28 4.79 0 2 C0 1.34 0 0.68 0 0 Z " fill="#A5E45A" transform="translate(477,746)"/>
<path d="M0 0 C3.56 1.53 6.03 3.64 8.81 6.31 C9.62 7.07 10.43 7.83 11.27 8.61 C13 11 13 11 12.76 13.79 C12.38 14.89 12.38 14.89 12 16 C6.06 11.12 2.24 7.57 0 0 Z " fill="#97D24F" transform="translate(542,861)"/>
<path d="M0 0 C0.66 0.33 1.32 0.66 2 1 C1.18 1.78 1.18 1.78 0.35 2.58 C-4.9 7.71 -9.61 13.05 -14.15 18.81 C-16 21 -16 21 -18 22 C-17.67 20.35 -17.34 18.7 -17 17 C-16.34 17 -15.68 17 -15 17 C-14.73 16.11 -14.46 15.23 -14.19 14.31 C-13.08 11.23 -11.77 8.74 -10 6 C-9.67 6.66 -9.34 7.32 -9 8 C-7.69 6.85 -6.37 5.71 -5.06 4.56 C-4.33 3.92 -3.6 3.29 -2.85 2.63 C-1.88 1.77 -0.91 0.91 0 0 Z " fill="#0A662B" transform="translate(465,553)"/>
<path d="M0 0 C0.66 0.33 1.32 0.66 2 1 C1.2 1.8 0.4 2.59 -0.43 3.42 C-3.41 6.38 -6.39 9.35 -9.37 12.32 C-10.66 13.6 -11.95 14.88 -13.24 16.16 C-15.09 18.01 -16.95 19.85 -18.8 21.7 C-19.66 22.56 -19.66 22.56 -20.54 23.43 C-22.79 25.68 -24.87 27.83 -26.76 30.39 C-27.17 30.92 -27.58 31.45 -28 32 C-28.66 32 -29.32 32 -30 32 C-28.72 29.19 -27.39 27.15 -25.2 24.98 C-24.64 24.42 -24.08 23.86 -23.5 23.28 C-22.9 22.69 -22.3 22.09 -21.68 21.48 C-21.06 20.87 -20.44 20.25 -19.8 19.62 C-17.83 17.66 -15.85 15.7 -13.88 13.75 C-12.53 12.42 -11.19 11.09 -9.86 9.76 C-6.58 6.5 -3.29 3.25 0 0 Z " fill="#11742F" transform="translate(540,449)"/>
<path d="M0 0 C5.38 3.59 8.49 8.7 12 14 C11.67 14.66 11.34 15.32 11 16 C5.69 13.59 1.81 9.04 -1 4 C-0.7 1.71 -0.7 1.71 0 0 Z " fill="#93D249" transform="translate(484,883)"/>
<path d="M0 0 C1.65 0 3.3 0 5 0 C5 0.66 5 1.32 5 2 C5.66 1.67 6.32 1.34 7 1 C8.67 1.06 10.34 1.2 12 1.38 C13.33 1.51 13.33 1.51 14.69 1.65 C17 2 17 2 19 3 C19 3.66 19 4.32 19 5 C20.65 5 22.3 5 24 5 C24.33 5.66 24.66 6.32 25 7 C19.15 6.59 13.66 5.54 8 4.06 C7.33 3.89 6.66 3.72 5.97 3.55 C4.29 3.1 2.64 2.56 1 2 C0.67 1.34 0.34 0.68 0 0 Z " fill="#9CE150" transform="translate(416,729)"/>
<path d="M0 0 C0.33 0 0.66 0 1 0 C1.96 4.73 2.06 9.22 1.88 14.02 C1.86 14.77 1.83 15.52 1.81 16.28 C1.73 18.65 1.65 21.01 1.56 23.38 C1.51 24.99 1.46 26.6 1.4 28.21 C1.28 32.14 1.14 36.07 1 40 C0.67 40 0.34 40 0 40 C-0.17 34.46 -0.33 28.93 -0.48 23.39 C-0.54 21.51 -0.59 19.62 -0.65 17.74 C-0.73 15.04 -0.81 12.33 -0.88 9.63 C-0.91 8.78 -0.93 7.93 -0.96 7.06 C-1.01 5.04 -1.01 3.02 -1 1 C-0.67 0.67 -0.34 0.34 0 0 Z " fill="#50C756" transform="translate(371,433)"/>
<path d="M0 0 C0.66 0 1.32 0 2 0 C2 2.64 2 5.28 2 8 C1.67 7.34 1.34 6.68 1 6 C-5.6 6 -12.2 6 -19 6 C-19 5.34 -19 4.68 -19 4 C-16.4 3.81 -13.79 3.62 -11.19 3.44 C-10.45 3.38 -9.71 3.33 -8.95 3.27 C-5.63 3.04 -3.19 2.94 0 4 C0 2.68 0 1.36 0 0 Z " fill="#15832E" transform="translate(389,704)"/>
<path d="M0 0 C0.33 0.66 0.66 1.32 1 2 C1.99 2.33 2.98 2.66 4 3 C1.42 5.99 -1.56 7.49 -5.06 9.25 C-6.13 9.79 -7.19 10.33 -8.29 10.89 C-9.18 11.26 -10.08 11.62 -11 12 C-11.66 11.67 -12.32 11.34 -13 11 C-11.59 9.73 -10.17 8.46 -8.75 7.19 C-7.96 6.48 -7.17 5.77 -6.36 5.04 C-4.3 3.26 -2.2 1.6 0 0 Z " fill="#EDEEED" transform="translate(486,690)"/>
<path d="M0 0 C2.77 2.48 4.44 5.21 6.25 8.44 C6.79 9.38 7.33 10.33 7.89 11.31 C9.07 14.17 9.14 15.19 8 18 C8 17.34 8 16.68 8 16 C7.01 16 6.02 16 5 16 C4.15 14.28 3.32 12.55 2.5 10.81 C2.04 9.85 1.57 8.89 1.09 7.89 C0 5.01 -0.22 3.05 0 0 Z " fill="#80CC45" transform="translate(475,922)"/>
<path d="M0 0 C0 0.66 0 1.32 0 2 C1.65 2.33 3.3 2.66 5 3 C1.31 5.46 -1.7 6.01 -6 7 C-6.33 6.01 -6.66 5.02 -7 4 C-6.67 3.34 -6.34 2.68 -6 2 C-6.99 1.67 -7.98 1.34 -9 1 C-5.85 0.3 -3.27 0 0 0 Z " fill="#1A3127" transform="translate(737,577)"/>
<path d="M0 0 C-2.83 2.83 -6.25 3.5 -10 4.62 C-10.74 4.85 -11.47 5.08 -12.23 5.32 C-17.71 7 -17.71 7 -20 7 C-20 6.34 -20 5.68 -20 5 C-21.32 4.67 -22.64 4.34 -24 4 C-22.45 3.69 -22.45 3.69 -20.86 3.38 C-19.49 3.11 -18.12 2.83 -16.75 2.56 C-16.07 2.43 -15.39 2.29 -14.68 2.15 C-12 1.62 -9.33 1.09 -6.69 0.41 C-4.44 -0.14 -2.3 -0.06 0 0 Z " fill="#3D5348" transform="translate(775,569)"/>
<path d="M0 0 C4.62 1.32 8.1 3.21 12 6 C11.67 6.66 11.34 7.32 11 8 C3.71 7.01 3.71 7.01 1 5 C0.25 2.38 0.25 2.38 0 0 Z " fill="#A4E157" transform="translate(465,806)"/>
<path d="M0 0 C2.12 -0.03 4.25 -0.05 6.38 -0.06 C7.56 -0.07 8.74 -0.09 9.96 -0.1 C13 0 13 0 15 1 C15 1.99 15 2.98 15 4 C7.57 3.01 7.57 3.01 0 2 C0 1.34 0 0.68 0 0 Z " fill="#99DF50" transform="translate(395,726)"/>
<path d="M0 0 C2 1 2 1 3.12 3.19 C4.08 6.27 4.15 8.79 4 12 C3.01 12 2.02 12 1 12 C0.64 10.38 0.29 8.75 -0.06 7.12 C-0.26 6.22 -0.46 5.32 -0.66 4.38 C-1 2 -1 2 0 0 Z " fill="#7BCD42" transform="translate(491,959)"/>
<path d="M0 0 C0.66 0 1.32 0 2 0 C5.12 6.62 5.12 6.62 4 10 C1 9 1 9 -1 6 C-1.19 3.38 -1.19 3.38 -1 1 C-0.67 0.67 -0.34 0.34 0 0 Z " fill="#9BDA58" transform="translate(603,945)"/>
<path d="M0 0 C0 3 0 3 -1.5 4.75 C-2.46 5.65 -2.46 5.65 -3.44 6.56 C-6.09 9 -6.09 9 -8 12 C-8.66 12 -9.32 12 -10 12 C-10.33 10.68 -10.66 9.36 -11 8 C-10.22 7.75 -9.43 7.5 -8.62 7.25 C-5.56 5.79 -5.38 4.95 -4 2 C-1.88 0.75 -1.88 0.75 0 0 Z " fill="#7FE66A" transform="translate(414,356)"/>
<path d="M0 0 C2.34 0.29 4.67 0.62 7 1 C7 1.33 7 1.66 7 2 C4.08 2.34 1.17 2.67 -1.75 3 C-2.99 3.14 -2.99 3.14 -4.25 3.29 C-5.45 3.42 -5.45 3.42 -6.67 3.56 C-7.77 3.69 -7.77 3.69 -8.89 3.82 C-10.92 3.99 -12.96 4 -15 4 C-15 3.34 -15 2.68 -15 2 C-11.51 1.3 -8.23 0.95 -4.69 1 C-3.47 1 -2.25 1 -1 1 C-0.67 0.67 -0.34 0.34 0 0 Z " fill="#146D2C" transform="translate(621,478)"/>
<path d="M0 0 C-0.99 0.66 -1.98 1.32 -3 2 C-0.69 2.33 1.62 2.66 4 3 C0.91 5.06 0.29 5.24 -3.19 5.12 C-5.07 5.06 -5.07 5.06 -7 5 C-7 4.01 -7 3.02 -7 2 C-8.32 1.67 -9.64 1.34 -11 1 C-3.57 -1.43 -3.57 -1.43 0 0 Z " fill="#6BBF50" transform="translate(501,312)"/>
<path d="M0 0 C2.8 2.07 3.03 3.14 3.69 6.69 C3.79 7.78 3.89 8.87 4 10 C2.68 9.67 1.36 9.34 0 9 C-1.12 2.25 -1.12 2.25 0 0 Z " fill="#97D655" transform="translate(609,958)"/>
<path d="M0 0 C1.88 0.19 1.88 0.19 4 1 C5.52 3.68 6.12 5.25 5.62 8.31 C5.42 8.87 5.21 9.43 5 10 C5 9.34 5 8.68 5 8 C4.01 7.67 3.02 7.34 2 7 C0.81 3.44 0.81 3.44 0 0 Z " fill="#7ECC45" transform="translate(485,948)"/>
<path d="M0 0 C2.48 0.5 2.48 0.5 5 1 C4.27 1.61 4.27 1.61 3.53 2.24 C1.67 4.38 1.59 5.43 1.49 8.23 C1.45 9.03 1.42 9.84 1.38 10.66 C1.36 11.5 1.34 12.33 1.31 13.19 C1.28 14.03 1.24 14.88 1.21 15.75 C1.13 17.83 1.06 19.92 1 22 C0.67 22 0.34 22 0 22 C0 14.74 0 7.48 0 0 Z " fill="#0A1E04" transform="translate(390,819)"/>
<path d="M0 0 C0.66 0 1.32 0 2 0 C2 0.66 2 1.32 2 2 C3.11 2.19 3.11 2.19 4.25 2.38 C6.85 2.97 8.76 3.56 11 5 C11.33 5.99 11.66 6.98 12 8 C7.03 6.51 2.58 4.4 -2 2 C-1.34 1.34 -0.68 0.68 0 0 Z " fill="#85BD43" transform="translate(469,782)"/>
<path d="M0 0 C-0.33 0.99 -0.66 1.98 -1 3 C-3.64 3.33 -6.28 3.66 -9 4 C-9 3.01 -9 2.02 -9 1 C-6.04 -0.48 -3.26 -0.06 0 0 Z " fill="#0A2115" transform="translate(755,574)"/>
<path d="M0 0 C0.99 0 1.98 0 3 0 C2.67 0.99 2.34 1.98 2 3 C-5.26 3 -12.52 3 -20 3 C-20 2.67 -20 2.34 -20 2 C-13.4 2 -6.8 2 0 2 C0 1.34 0 0.68 0 0 Z " fill="#73D860" transform="translate(934,309)"/>
<path d="M0 0 C3.5 1.4 4.71 2.71 6.25 6.12 C6.59 6.85 6.92 7.57 7.27 8.32 C7.63 9.15 7.63 9.15 8 10 C5.15 8.62 2.97 7.53 1 5 C0.31 2.31 0.31 2.31 0 0 Z " fill="#A6E559" transform="translate(537,857)"/>
<path d="M0 0 C1.45 0.62 1.45 0.62 2.94 1.25 C3.27 2.24 3.6 3.23 3.94 4.25 C2.19 4.94 2.19 4.94 -0.06 5.25 C-2.5 3.79 -3.79 2.8 -5.06 0.25 C-3.06 -0.75 -3.06 -0.75 0 0 Z " fill="#99DA4B" transform="translate(439.0625,792.75)"/>
<path d="M0 0 C0.33 0 0.66 0 1 0 C1 5.28 1 10.56 1 16 C-1.85 13.15 -1.74 10.98 -2 7 C-1.53 4.55 -0.82 2.37 0 0 Z " fill="#E9B922" transform="translate(679,770)"/>
<path d="M0 0 C2.97 0.5 2.97 0.5 6 1 C6.33 2.32 6.66 3.64 7 5 C4.69 4.67 2.38 4.34 0 4 C0 2.68 0 1.36 0 0 Z " fill="#A4E259" transform="translate(497,752)"/>
<path d="M0 0 C-0.33 3.63 -0.66 7.26 -1 11 C-1.99 10.67 -2.98 10.34 -4 10 C-3.89 8.52 -3.76 7.04 -3.62 5.56 C-3.56 4.74 -3.49 3.92 -3.41 3.07 C-3.28 2.38 -3.14 1.7 -3 1 C-1 0 -1 0 0 0 Z " fill="#62DA5F" transform="translate(376,422)"/>
<path d="M0 0 C-4.36 2.45 -8.03 3.5 -13 4 C-13 3.34 -13 2.68 -13 2 C-11.59 1.47 -10.17 0.95 -8.75 0.44 C-7.96 0.15 -7.17 -0.14 -6.36 -0.44 C-3.81 -1.05 -2.45 -0.85 0 0 Z " fill="#74D055" transform="translate(733,348)"/>
<path d="M0 0 C0.66 0.33 1.32 0.66 2 1 C-0.18 5.48 -2.35 7.22 -7 9 C-7.66 8.67 -8.32 8.34 -9 8 C-6.03 5.36 -3.06 2.72 0 0 Z " fill="#D4D7D6" transform="translate(482,693)"/>
<path d="M0 0 C2 1 2 1 3.19 3.94 C4 7 4 7 3 9 C2.34 9 1.68 9 1 9 C-0.62 6.43 -1.04 5.32 -0.62 2.25 C-0.42 1.51 -0.21 0.76 0 0 Z " fill="#9DDF59" transform="translate(700,935)"/>
<path d="M0 0 C0 0.33 0 0.66 0 1 C-4.76 1.95 -9.17 2.08 -14 2 C-14.33 1.34 -14.66 0.68 -15 0 C-9.62 -0.85 -5.35 -1 0 0 Z " fill="#1A8133" transform="translate(648,477)"/>
<path d="M0 0 C0.33 0.66 0.66 1.32 1 2 C0.34 2 -0.32 2 -1 2 C-1 2.66 -1 3.32 -1 4 C-2.98 3.34 -4.96 2.68 -7 2 C-7 1.34 -7 0.68 -7 0 C-4.3 -1.35 -2.85 -0.8 0 0 Z " fill="#A3DF5C" transform="translate(547,774)"/>
<path d="M0 0 C0.99 0.33 1.98 0.66 3 1 C0.69 3.31 -1.62 5.62 -4 8 C-4.33 7.34 -4.66 6.68 -5 6 C-3.35 4.02 -1.7 2.04 0 0 Z " fill="#011D0A" transform="translate(472,546)"/>
<path d="M0 0 C0.66 0 1.32 0 2 0 C2.99 2.97 3.98 5.94 5 9 C4.34 9 3.68 9 3 9 C2.9 8.36 2.79 7.72 2.69 7.06 C2.46 6.38 2.23 5.7 2 5 C1.01 4.67 0.02 4.34 -1 4 C-0.67 2.68 -0.34 1.36 0 0 Z " fill="#94D253" transform="translate(703,942)"/>
<path d="M0 0 C0.99 0.33 1.98 0.66 3 1 C4.06 3.25 4.06 3.25 5 6 C5.37 6.93 5.74 7.86 6.12 8.81 C6.41 9.53 6.7 10.26 7 11 C4 10 4 10 2.83 8.22 C2.5 7.51 2.16 6.8 1.81 6.06 C1.47 5.35 1.12 4.64 0.77 3.91 C0 2 0 2 0 0 Z " fill="#9FDD56" transform="translate(623,926)"/>
<path d="M0 0 C0.33 1.32 0.66 2.64 1 4 C-5.62 3.25 -5.62 3.25 -9 1 C-5.8 -0.07 -3.34 -0.07 0 0 Z " fill="#9EDD54" transform="translate(495,750)"/>
<path d="M0 0 C0.66 0.66 1.32 1.32 2 2 C0.4 2.7 -1.2 3.38 -2.81 4.06 C-3.71 4.45 -4.6 4.83 -5.52 5.22 C-8 6 -8 6 -11 5 C-10.37 4.72 -9.75 4.45 -9.1 4.16 C-8.28 3.8 -7.47 3.44 -6.62 3.06 C-5.81 2.7 -5 2.34 -4.16 1.97 C-2.76 1.34 -1.37 0.69 0 0 Z " fill="#71CF55" transform="translate(686,361)"/>
<path d="M0 0 C3.3 0 6.6 0 10 0 C10.33 0.66 10.66 1.32 11 2 C6.54 2.5 6.54 2.5 2 3 C1.34 2.01 0.68 1.02 0 0 Z " fill="#82DA5A" transform="translate(888,312)"/>
<path d="M0 0 C4.55 -0.37 4.55 -0.37 6.81 1.5 C7.2 2 7.6 2.49 8 3 C6.02 3.99 6.02 3.99 4 5 C2 3.62 2 3.62 0 2 C0 1.34 0 0.68 0 0 Z " fill="#84D249" transform="translate(405,851)"/>
<path d="M0 0 C-2.64 1.98 -5.28 3.96 -8 6 C-8.33 5.34 -8.66 4.68 -9 4 C-8.34 3.67 -7.68 3.34 -7 3 C-6.67 2.01 -6.34 1.02 -6 0 C-4 -1 -4 -1 0 0 Z " fill="#48BF54" transform="translate(853,442)"/>
<path d="M0 0 C2.64 0 5.28 0 8 0 C8 0.99 8 1.98 8 3 C6.35 3.33 4.7 3.66 3 4 C3 3.34 3 2.68 3 2 C2.01 2 1.02 2 0 2 C0 1.34 0 0.68 0 0 Z " fill="#87E265" transform="translate(486,314)"/>
<path d="M0 0 C3.96 0.57 6.67 1.81 10 4 C8.38 4.75 8.38 4.75 6 5 C2.75 3.12 2.75 3.12 0 1 C0 0.67 0 0.34 0 0 Z " fill="#95D04F" transform="translate(459,778)"/>
<path d="M0 0 C0.66 0.33 1.32 0.66 2 1 C-1.13 4.39 -3.57 6.61 -8 8 C-5.33 5.33 -2.67 2.67 0 0 Z " fill="#E2E1E2" transform="translate(505,579)"/>
<path d="M0 0 C1.75 2.62 2.39 4.04 3 7 C1.35 7.66 -0.3 8.32 -2 9 C-1.34 6.03 -0.68 3.06 0 0 Z " fill="#5ACC57" transform="translate(377,407)"/>
<path d="M0 0 C0.66 0 1.32 0 2 0 C2.75 1.75 2.75 1.75 3 4 C1.19 6.25 1.19 6.25 -1 8 C-1.66 8 -2.32 8 -3 8 C-1.12 2.25 -1.12 2.25 0 0 Z " fill="#4EBF4F" transform="translate(916,356)"/>
<path d="M0 0 C0.99 0 1.98 0 3 0 C3.69 1.81 3.69 1.81 4 4 C2.56 5.75 2.56 5.75 1 7 C0.34 5.02 -0.32 3.04 -1 1 C-0.67 0.67 -0.34 0.34 0 0 Z " fill="#8ECE49" transform="translate(606,954)"/>
<path d="M0 0 C0.33 0.66 0.66 1.32 1 2 C-0.25 4.56 -0.25 4.56 -2 7 C-2.99 7.33 -3.98 7.66 -5 8 C-3.81 4.62 -2.72 2.35 0 0 Z " fill="#DDDEE0" transform="translate(466,619)"/>
<path d="M0 0 C0 0.99 0 1.98 0 3 C-2.88 3.12 -2.88 3.12 -6 3 C-6.66 2.34 -7.32 1.68 -8 1 C-5.29 -0.35 -2.99 -0.07 0 0 Z " fill="#CCCCCC" transform="translate(593,538)"/>
<path d="M0 0 C1.32 0.66 2.64 1.32 4 2 C3.67 3.32 3.34 4.64 3 6 C2.34 6 1.68 6 1 6 C0.34 4.35 -0.32 2.7 -1 1 C-0.67 0.67 -0.34 0.34 0 0 Z " fill="#77C83B" transform="translate(483,941)"/>
<path d="M0 0 C1.32 0.33 2.64 0.66 4 1 C4 2.98 4 4.96 4 7 C1.5 4.83 0.56 3.27 0 0 Z " fill="#A1E059" transform="translate(590,924)"/>
<path d="M0 0 C1.32 0.33 2.64 0.66 4 1 C4 1.99 4 2.98 4 4 C3.01 4.33 2.02 4.66 1 5 C0.67 3.35 0.34 1.7 0 0 Z " fill="#97D44C" transform="translate(523,845)"/>
<path d="M0 0 C2.97 0.5 2.97 0.5 6 1 C5.01 2.49 5.01 2.49 4 4 C2.68 3.67 1.36 3.34 0 3 C0 2.01 0 1.02 0 0 Z " fill="#A5E559" transform="translate(466,741)"/>
<path d="M0 0 C1.98 0 3.96 0 6 0 C5.67 1.32 5.34 2.64 5 4 C3.35 3.67 1.7 3.34 0 3 C0 2.01 0 1.02 0 0 Z " fill="#98D94F" transform="translate(445,735)"/>
<path d="M0 0 C0 0.99 0 1.98 0 3 C-2.31 2.67 -4.62 2.34 -7 2 C-4.35 0.54 -3.11 0 0 0 Z M-7 3 C-4 4 -4 4 -4 4 Z " fill="#264035" transform="translate(679,590)"/>
<path d="M0 0 C0.93 2.61 1.15 3.64 0.06 6.25 C-0.46 7.12 -0.46 7.12 -1 8 C-1.66 7.34 -2.32 6.68 -3 6 C-3 3 -3 3 -1.5 1.31 C-0.76 0.66 -0.76 0.66 0 0 Z " fill="#64DB60" transform="translate(381,404)"/>
<path d="M0 0 C1 3 1 3 0.22 4.82 C-1.39 7.41 -1.39 7.41 -3 10 C-3.66 9.01 -4.32 8.02 -5 7 C-4.01 6.67 -3.02 6.34 -2 6 C-0.77 2.99 -0.77 2.99 0 0 Z " fill="#58D156" transform="translate(922,348)"/>
<path d="M0 0 C0.33 0.99 0.66 1.98 1 3 C-2 4 -2 4 -4.19 3.06 C-4.79 2.71 -5.38 2.36 -6 2 C-3 0 -3 0 0 0 Z " fill="#85E668" transform="translate(463,323)"/>
</svg>
